<?xml version="1.0" standalone="no"?>
<!DOCTYPE svg PUBLIC "-//W3C//DTD SVG 20010904//EN"
 "http://www.w3.org/TR/2001/REC-SVG-20010904/DTD/svg10.dtd">
<svg version="1.0" xmlns="http://www.w3.org/2000/svg"
 width="512.000000pt" height="512.000000pt" viewBox="0 0 512.000000 512.000000"
 preserveAspectRatio="xMidYMid meet">

<g transform="translate(0.000000,512.000000) scale(0.100000,-0.100000)"
fill="#000000" stroke="none">
<path d="M441 5024 c-253 -68 -410 -331 -346 -579 67 -257 329 -415 580 -350
32 9 81 28 109 44 l51 28 250 -249 c221 -218 255 -248 282 -248 25 0 50 16
115 73 219 190 426 300 693 367 272 69 572 63 840 -16 58 -17 59 -18 33 -28
-61 -26 -85 -76 -58 -126 21 -39 56 -39 215 -4 193 44 184 40 202 80 14 28 14
38 4 60 -20 44 -191 283 -214 299 -30 21 -60 19 -91 -6 -30 -24 -35 -75 -11
-113 l16 -24 -79 23 c-153 45 -265 59 -462 59 -195 0 -279 -9 -445 -51 -241
-60 -501 -192 -685 -346 l-65 -55 -211 210 -211 210 28 52 c100 184 69 403
-78 557 -118 124 -300 177 -462 133z m270 -185 c67 -36 98 -68 137 -143 22
-43 26 -64 26 -136 1 -78 -2 -90 -33 -148 -38 -70 -70 -100 -145 -140 -43 -22
-64 -26 -136 -26 -72 0 -93 4 -136 26 -75 40 -107 70 -145 140 -31 58 -34 70
-33 148 0 100 24 160 89 225 100 100 249 121 376 54z"/>
<path d="M4441 5024 c-254 -68 -410 -331 -346 -579 9 -32 28 -81 44 -109 l28
-51 -249 -250 c-218 -221 -248 -255 -248 -282 0 -25 16 -50 74 -116 236 -271
369 -570 406 -916 22 -193 -4 -461 -59 -622 -16 -49 -19 -52 -26 -29 -25 83
-127 97 -153 22 -8 -23 -3 -60 24 -178 45 -194 41 -183 80 -201 28 -14 38 -14
60 -4 44 20 283 191 299 214 21 30 19 60 -6 91 -24 31 -75 35 -114 10 l-24
-15 20 63 c32 105 59 276 66 413 19 425 -131 874 -401 1195 l-54 65 210 211
210 211 52 -28 c274 -148 611 2 691 308 89 342 -242 669 -584 577z m270 -185
c67 -36 98 -68 137 -143 22 -43 26 -64 26 -136 1 -78 -2 -90 -33 -148 -38 -70
-70 -100 -145 -140 -43 -22 -64 -26 -136 -26 -72 0 -93 4 -136 26 -75 40 -107
70 -145 140 -31 58 -34 70 -33 148 0 100 24 160 89 225 100 100 249 121 376
54z"/>
<path d="M2352 3736 c-10 -14 -32 -58 -47 -99 l-29 -75 -55 -17 c-31 -10 -82
-30 -113 -46 l-57 -29 -80 35 c-43 19 -92 35 -107 35 -40 0 -284 -244 -284
-284 0 -15 16 -64 35 -107 l35 -80 -29 -57 c-16 -31 -36 -82 -46 -113 l-17
-55 -75 -29 c-130 -49 -123 -35 -123 -255 0 -220 -7 -206 123 -255 l75 -29 17
-55 c10 -31 30 -82 46 -113 l29 -57 -35 -80 c-19 -43 -35 -92 -35 -107 0 -40
244 -284 284 -284 15 0 64 16 107 35 l80 35 57 -29 c31 -16 82 -36 113 -46
l55 -17 29 -75 c49 -130 35 -123 255 -123 220 0 206 -7 255 123 l29 75 55 17
c31 10 82 30 113 46 l57 29 80 -35 c43 -19 92 -35 107 -35 40 0 284 244 284
284 0 15 -16 64 -35 107 l-35 80 29 57 c16 31 36 82 46 113 l17 55 75 29 c130
49 123 35 123 255 0 220 7 206 -123 255 l-75 29 -17 55 c-10 31 -30 82 -46
113 l-29 57 35 80 c19 43 35 92 35 107 0 40 -244 284 -284 284 -15 0 -64 -16
-107 -35 l-80 -35 -57 29 c-31 16 -82 36 -113 46 l-55 17 -29 75 c-49 130 -35
123 -255 123 -188 0 -189 0 -208 -24z m327 -192 c41 -108 43 -110 132 -139 45
-14 117 -44 160 -66 43 -21 86 -39 94 -39 8 0 45 14 82 30 36 17 71 30 77 30
14 0 136 -121 136 -136 0 -6 -13 -41 -30 -77 -16 -37 -30 -74 -30 -82 0 -8 18
-51 39 -94 22 -43 52 -115 66 -160 29 -89 31 -91 139 -132 l56 -20 0 -99 0
-99 -56 -20 c-108 -41 -110 -43 -139 -132 -14 -45 -44 -117 -66 -160 -21 -43
-39 -86 -39 -94 0 -8 14 -45 30 -82 17 -36 30 -71 30 -77 0 -14 -121 -136
-136 -136 -6 0 -41 14 -77 30 -37 17 -74 30 -82 30 -8 0 -51 -18 -94 -39 -43
-22 -115 -52 -160 -66 -89 -29 -91 -31 -132 -139 l-20 -56 -99 0 -99 0 -20 56
c-41 108 -43 110 -132 139 -45 14 -117 44 -160 66 -43 21 -86 39 -94 39 -8 0
-45 -13 -82 -30 -36 -17 -71 -30 -77 -30 -14 0 -136 121 -136 136 0 6 14 41
30 77 17 37 30 74 30 82 0 9 -16 48 -37 88 -20 39 -50 113 -67 162 l-31 90
-82 35 -83 35 0 95 0 95 83 35 82 35 31 90 c17 50 47 123 67 162 21 40 37 79
37 88 0 8 -13 45 -30 82 -16 36 -30 71 -30 77 0 14 121 136 136 136 6 0 41
-13 77 -30 37 -16 74 -30 82 -30 8 0 51 18 94 39 43 22 115 52 160 66 89 29
91 31 132 139 l20 56 99 0 99 0 20 -56z"/>
<path d="M2412 3150 c-220 -58 -386 -225 -442 -446 -58 -225 27 -474 210 -618
353 -278 859 -105 971 332 111 436 -303 846 -739 732z m240 -151 c231 -49 389
-279 350 -509 -42 -246 -273 -413 -513 -372 -362 62 -503 499 -244 757 110
111 257 156 407 124z"/>
<path d="M1035 3408 c-54 -30 -277 -193 -290 -211 -21 -30 -19 -60 6 -91 24
-30 75 -35 113 -11 l23 15 -22 -77 c-155 -536 -21 -1167 338 -1593 l55 -65
-210 -211 -210 -211 -52 28 c-274 148 -611 -2 -691 -308 -65 -249 94 -511 352
-578 249 -65 511 94 578 350 29 113 13 237 -44 339 l-28 51 249 250 c218 220
248 255 248 282 0 25 -17 51 -81 125 -155 178 -264 371 -332 583 -57 181 -72
284 -71 495 1 190 14 291 60 445 17 58 18 59 28 33 26 -63 84 -88 128 -54 37
27 37 55 2 211 -44 191 -40 183 -74 200 -34 18 -48 18 -75 3z m-324 -2569 c67
-36 98 -68 137 -143 22 -43 26 -64 26 -136 1 -78 -2 -90 -33 -148 -38 -70 -70
-100 -145 -140 -43 -22 -64 -26 -136 -26 -72 0 -93 4 -136 26 -75 40 -107 70
-145 140 -31 58 -34 70 -33 148 0 100 24 160 89 225 100 100 249 121 376 54z"/>
<path d="M3628 1369 c-272 -235 -563 -361 -920 -400 -177 -20 -412 2 -587 53
-70 21 -73 23 -49 33 63 25 87 84 54 127 -28 38 -56 38 -212 2 -194 -45 -183
-41 -201 -80 -14 -28 -14 -38 -4 -60 20 -44 191 -283 214 -299 51 -35 117 1
117 64 0 20 -5 42 -12 49 -22 22 -1 22 97 -3 543 -138 1137 -5 1555 348 l65
55 211 -210 211 -210 -28 -52 c-148 -274 2 -611 308 -691 160 -42 338 11 456
134 182 190 182 472 0 662 -148 156 -382 193 -567 90 l-51 -28 -250 249 c-220
218 -255 248 -282 248 -25 0 -51 -17 -125 -81z m1083 -530 c67 -36 98 -68 137
-143 22 -43 26 -64 26 -136 1 -78 -2 -90 -33 -148 -38 -70 -70 -100 -145 -140
-43 -22 -64 -26 -136 -26 -72 0 -93 4 -136 26 -75 40 -107 70 -145 140 -31 58
-34 70 -33 148 0 100 24 160 89 225 100 100 249 121 376 54z"/>
</g>
</svg>
