<?xml version="1.0" standalone="no"?>
<!DOCTYPE svg PUBLIC "-//W3C//DTD SVG 20010904//EN"
 "http://www.w3.org/TR/2001/REC-SVG-20010904/DTD/svg10.dtd">
<svg version="1.0" xmlns="http://www.w3.org/2000/svg"
 width="512.000000pt" height="512.000000pt" viewBox="0 0 512.000000 512.000000"
 preserveAspectRatio="xMidYMid meet">

<g transform="translate(0.000000,512.000000) scale(0.100000,-0.100000)"
fill="#000000" stroke="none">
<path d="M1246 5088 c-13 -18 -16 -53 -16 -179 l0 -156 -61 -6 c-73 -6 -128
-39 -152 -90 -13 -27 -17 -65 -17 -164 l0 -129 -81 -33 -81 -33 -87 86 c-160
156 -213 155 -377 -5 -101 -100 -124 -136 -124 -197 0 -63 13 -86 110 -185
l89 -93 -32 -76 -32 -76 -135 -3 c-122 -4 -139 -6 -174 -28 -63 -39 -76 -80
-76 -251 0 -132 2 -149 23 -185 37 -67 86 -85 237 -85 l125 -1 32 -82 33 -82
-89 -90 c-101 -103 -111 -118 -111 -175 0 -63 22 -99 124 -199 167 -163 223
-162 391 8 l90 91 5 170 c4 149 7 172 25 196 40 53 77 64 217 64 l128 0 0
-1060 c0 -1047 0 -1060 20 -1080 20 -20 33 -20 1579 -20 l1560 0 15 22 c14 20
16 232 16 2063 0 1831 -2 2043 -16 2063 l-15 22 -1564 0 -1564 0 -15 -22z
m3069 -283 l0 -200 -1487 -3 -1488 -2 0 205 0 205 1488 -2 1487 -3 0 -200z
m-3085 -450 l0 -285 -22 -4 c-151 -31 -178 -41 -271 -103 -119 -79 -217 -223
-246 -361 -16 -76 -14 -204 5 -275 16 -62 52 -141 86 -190 l20 -28 -23 -52
c-20 -45 -24 -72 -27 -199 l-4 -146 -83 -81 c-45 -45 -90 -81 -100 -81 -10 0
-62 44 -116 97 -72 70 -99 104 -99 121 0 17 31 56 110 137 61 62 110 117 110
121 0 5 -10 27 -21 49 -12 22 -35 76 -51 120 -16 44 -34 85 -40 92 -8 10 -52
13 -160 13 -145 0 -150 1 -173 25 -24 23 -25 30 -25 147 0 174 -6 168 173 168
93 0 150 5 167 13 17 9 32 34 52 87 15 41 39 98 54 127 19 39 23 56 15 70 -5
10 -55 63 -110 118 -76 75 -101 106 -101 125 0 20 24 50 99 123 54 53 106 97
116 97 9 0 68 -49 130 -110 62 -60 120 -110 129 -110 9 0 43 13 74 29 32 16
83 37 113 47 90 29 89 25 89 197 0 178 4 187 82 187 l48 0 0 -285z m3088
-1582 l-3 -1728 -1487 -3 -1488 -2 0 1730 0 1730 1490 0 1490 0 -2 -1727z
m-3088 807 l0 -380 -135 0 c-100 0 -145 -4 -173 -15 -42 -18 -45 -16 -88 67
-115 225 -38 500 177 639 53 34 147 68 192 68 l27 1 0 -380z"/>
<path d="M3410 4873 c-34 -12 -50 -37 -50 -74 0 -89 119 -112 149 -29 22 65
-36 126 -99 103z"/>
<path d="M3690 4852 c-34 -34 -37 -50 -15 -91 37 -72 145 -45 145 36 0 40 -27
71 -67 79 -27 5 -37 1 -63 -24z"/>
<path d="M3999 4851 c-36 -36 -37 -73 -4 -106 34 -35 86 -34 114 1 35 45 26
95 -20 119 -40 21 -57 19 -90 -14z"/>
<path d="M1904 4290 c-56 -17 -127 -73 -159 -124 -27 -45 -30 -57 -30 -135 0
-98 14 -137 72 -195 56 -55 116 -80 193 -79 76 0 125 19 181 70 55 50 81 105
87 184 4 56 1 75 -20 120 -46 101 -128 159 -233 165 -33 2 -74 -1 -91 -6z
m142 -109 c168 -76 115 -321 -69 -321 -59 0 -98 19 -133 65 -51 67 -42 164 19
222 56 53 116 64 183 34z"/>
<path d="M1921 4074 c-28 -35 -26 -69 4 -99 24 -24 57 -31 90 -19 24 10 46 60
39 89 -14 57 -97 75 -133 29z"/>
<path d="M2620 4060 c-23 -23 -24 -33 -10 -61 10 -18 28 -19 660 -19 l649 0
15 21 c16 23 12 47 -12 67 -12 9 -157 12 -649 12 -620 0 -633 0 -653 -20z"/>
<path d="M1904 3569 c-55 -16 -127 -72 -158 -123 -36 -57 -46 -149 -26 -222
16 -57 86 -135 146 -165 64 -31 162 -30 224 1 101 50 151 125 158 235 4 64 1
75 -29 134 -63 119 -191 176 -315 140z m142 -108 c98 -45 132 -163 71 -251
-61 -91 -205 -94 -271 -7 -51 67 -47 154 11 218 53 59 117 72 189 40z"/>
<path d="M2620 3340 c-23 -23 -24 -33 -10 -61 10 -18 28 -19 660 -19 l649 0
15 21 c16 23 12 47 -12 67 -12 9 -157 12 -649 12 -620 0 -633 0 -653 -20z"/>
<path d="M2320 2863 c-36 -38 -116 -122 -178 -187 l-112 -119 -45 41 c-24 23
-51 42 -58 42 -20 0 -47 -33 -47 -58 0 -28 119 -152 146 -152 35 0 424 409
424 445 0 22 -32 55 -54 55 -5 0 -39 -30 -76 -67z"/>
<path d="M1726 2814 c-14 -13 -16 -52 -16 -269 0 -217 2 -256 16 -269 13 -14
56 -16 313 -16 218 0 300 3 309 12 8 8 12 54 12 139 0 121 -1 129 -22 143 -29
20 -34 20 -58 -4 -17 -17 -20 -33 -20 -105 l0 -85 -225 0 -225 0 0 185 0 185
138 0 c122 0 141 2 155 18 21 23 22 46 1 66 -13 13 -45 16 -189 16 -144 0
-176 -3 -189 -16z"/>
<path d="M2632 2584 c-30 -21 -29 -59 3 -80 37 -24 181 -17 201 11 19 26 18
41 -6 65 -17 17 -33 20 -98 20 -54 0 -84 -5 -100 -16z"/>
<path d="M2990 2580 c-24 -24 -25 -39 -6 -66 14 -18 32 -19 451 -22 477 -3
485 -2 485 53 0 54 -6 55 -477 55 -420 0 -434 -1 -453 -20z"/>
<path d="M1732 1968 c-17 -17 -15 -54 4 -72 14 -14 47 -16 252 -14 l236 3 15
27 c14 24 14 28 -3 47 -18 20 -29 21 -256 21 -170 0 -239 -3 -248 -12z"/>
<path d="M2392 1968 c-17 -17 -15 -54 4 -72 14 -14 96 -16 760 -16 495 0 752
3 765 10 22 12 26 59 7 78 -17 17 -1519 17 -1536 0z"/>
<path d="M1720 1481 c-15 -28 -12 -46 8 -64 17 -16 108 -17 1099 -17 1033 0
1081 1 1096 18 20 22 22 53 5 70 -9 9 -268 12 -1105 12 -1070 0 -1093 0 -1103
-19z"/>
<path d="M4567 3185 c-42 -41 -8 -81 76 -87 70 -6 104 -28 135 -88 l22 -44 0
-958 c0 -956 0 -957 21 -971 25 -18 56 -11 70 14 6 12 8 365 7 991 l-3 973
-22 41 c-48 89 -121 136 -224 142 -52 3 -69 1 -82 -13z"/>
<path d="M766 2419 c-35 -28 -35 -70 1 -98 42 -33 103 -4 103 50 0 28 -39 69
-65 69 -7 0 -24 -9 -39 -21z"/>
<path d="M770 2160 c-20 -20 -20 -33 -20 -683 0 -642 1 -664 19 -681 26 -23
63 -17 78 14 10 20 12 166 10 683 -2 639 -3 659 -21 673 -27 19 -42 18 -66 -6z"/>
<path d="M4791 894 c-12 -15 -21 -32 -21 -39 0 -7 9 -24 21 -39 38 -48 112
-23 112 39 0 62 -74 87 -112 39z"/>
<path d="M563 670 c-32 -13 -36 -39 -32 -223 4 -160 5 -163 36 -228 39 -79
102 -140 181 -177 l57 -27 2000 -3 c1793 -2 2005 -1 2053 14 102 29 182 99
229 199 27 59 28 63 28 245 l0 184 -25 13 c-20 10 -475 13 -2265 12 -1290 0
-2249 -4 -2262 -9z m1659 -218 c2 -82 7 -124 17 -135 12 -15 66 -17 587 -17
l573 0 15 22 c12 17 16 49 16 135 l0 113 795 0 795 0 0 -113 c0 -71 -6 -132
-15 -163 -19 -63 -72 -126 -133 -156 l-47 -23 -2000 0 -2000 0 -54 30 c-29 16
-64 43 -76 60 -51 68 -58 94 -63 233 l-5 132 796 0 795 0 4 -118z m1098 33 l0
-85 -495 0 -495 0 0 85 0 85 495 0 495 0 0 -85z"/>
</g>
</svg>
